<svg width="23" height="24" viewBox="0 0 23 24" fill="none" xmlns="http://www.w3.org/2000/svg">
<path d="M7.15015 15.9998L15.1501 7.99976M7.09651 4.24947L5.40209 4.23679C4.28584 4.22843 3.37883 5.13545 3.38719 6.2517L3.39987 7.94611C3.40392 8.48691 3.18877 9.0063 2.8035 9.38584L1.59642 10.5751C0.801195 11.3585 0.801195 12.6412 1.59642 13.4246L2.8035 14.6137C3.18877 14.9933 3.40392 15.5127 3.39987 16.0535L3.38719 17.7479C3.37883 18.8641 4.28584 19.7711 5.40209 19.7628L7.09651 19.7501C7.63731 19.7461 8.1567 19.9612 8.53624 20.3465L9.72544 21.5536C10.5088 22.3488 11.7915 22.3488 12.5749 21.5536L13.764 20.3465C14.1436 19.9612 14.663 19.7461 15.2038 19.7501L16.8982 19.7628C18.0144 19.7711 18.9214 18.8641 18.9131 17.7479L18.9004 16.0535C18.8964 15.5127 19.1115 14.9933 19.4968 14.6137L20.7039 13.4246C21.4991 12.6412 21.4991 11.3585 20.7039 10.5751L19.4968 9.38584C19.1115 9.0063 18.8964 8.48691 18.9004 7.94611L18.9131 6.2517C18.9214 5.13545 18.0144 4.22843 16.8982 4.23679L15.2038 4.24947C14.663 4.25352 14.1436 4.03838 13.764 3.65311L12.5749 2.44602C11.7915 1.6508 10.5087 1.6508 9.72544 2.44602L8.53624 3.65311C8.1567 4.03838 7.63731 4.25352 7.09651 4.24947ZM9.31684 8.99992C9.31684 9.7363 8.71988 10.3333 7.9835 10.3333C7.24712 10.3333 6.65017 9.7363 6.65017 8.99992C6.65017 8.26354 7.24712 7.66659 7.9835 7.66659C8.71988 7.66659 9.31684 8.26354 9.31684 8.99992ZM15.6501 14.9998C15.6501 15.7362 15.0532 16.3331 14.3168 16.3331C13.5804 16.3331 12.9834 15.7362 12.9834 14.9998C12.9834 14.2634 13.5804 13.6665 14.3168 13.6665C15.0532 13.6665 15.6501 14.2634 15.6501 14.9998Z" stroke="black" stroke-width="2" stroke-linecap="round" stroke-linejoin="round"/>
</svg>
