<svg width="20" height="20" viewBox="0 0 20 20" fill="none" xmlns="http://www.w3.org/2000/svg">
<path fill-rule="evenodd" clip-rule="evenodd" d="M10 0C15.523 0 20 4.477 20 10C20 15.523 15.523 20 10 20C4.477 20 0 15.523 0 10C0 4.477 4.477 0 10 0ZM10 2C7.87827 2 5.84344 2.84285 4.34315 4.34315C2.84285 5.84344 2 7.87827 2 10C2 12.1217 2.84285 14.1566 4.34315 15.6569C5.84344 17.1571 7.87827 18 10 18C12.1217 18 14.1566 17.1571 15.6569 15.6569C17.1571 14.1566 18 12.1217 18 10C18 7.87827 17.1571 5.84344 15.6569 4.34315C14.1566 2.84285 12.1217 2 10 2ZM8.586 5.757C8.94004 5.40319 9.41387 5.195 9.91393 5.17352C10.414 5.15205 10.9039 5.31885 11.287 5.641L11.414 5.757L14.243 8.586C14.5968 8.94004 14.805 9.41387 14.8265 9.91393C14.848 10.414 14.6811 10.9039 14.359 11.287L14.243 11.414L11.414 14.243C11.06 14.5968 10.5861 14.805 10.0861 14.8265C9.58601 14.848 9.09607 14.6811 8.713 14.359L8.586 14.243L5.757 11.414C5.40319 11.06 5.195 10.5861 5.17352 10.0861C5.15205 9.58601 5.31885 9.09607 5.641 8.713L5.757 8.586L8.586 5.757ZM10 7.172L7.172 10L10 12.828L12.828 10L10 7.172Z" fill="black"/>
</svg>
